<mxfile host="app.diagrams.net" modified="2023-10-30T14:16:30.395Z" agent="Mozilla/5.0 (Windows NT 10.0; Win64; x64) AppleWebKit/537.36 (KHTML, like Gecko) Chrome/118.0.0.0 Safari/537.36" version="22.0.8" etag="wbHyGezH3rqvCCWEAcop" type="github">
  <diagram name="PÃ¡gina-1" id="60TlD6HR6Y-73fHjl4zF">
    <mxGraphModel>
      <root>
        <mxCell id="0" />
        <mxCell id="1" parent="0" />
      </root>
    </mxGraphModel>
  </diagram>
</mxfile>
